<?xml version="1.0" encoding="utf-8"?>
<!-- Generator: Adobe Illustrator 17.0.0, SVG Export Plug-In . SVG Version: 6.00 Build 0)  -->
<!DOCTYPE svg PUBLIC "-//W3C//DTD SVG 1.1//EN" "http://www.w3.org/Graphics/SVG/1.1/DTD/svg11.dtd">
<svg version="1.1" id="图层_1" xmlns="http://www.w3.org/2000/svg" xmlns:xlink="http://www.w3.org/1999/xlink" x="0px" y="0px"
	 width="70px" height="70px" viewBox="0 0 70 70" enable-background="new 0 0 70 70" xml:space="preserve">
<path fill="none" stroke="#231815" stroke-miterlimit="10" d="M52.121,60.237c-0.678-0.204-1.415-0.12-2.035,0.227
	C45.6,63.001,40.51,64.34,35.37,64.34C18.812,64.337,5.34,50.865,5.34,34.311c0-16.56,13.472-30.032,30.029-30.032
	c16.557,0,30.029,13.472,30.029,30.029c0,6.508-2.081,12.722-6.018,17.975c-0.497,0.663-0.65,1.522-0.413,2.315l2.537,8.453
	L52.121,60.237L52.121,60.237z"/>
<line fill="none" stroke="#231815" stroke-miterlimit="10" x1="19.171" y1="25.716" x2="41.946" y2="25.716"/>
<line fill="none" stroke="#231815" stroke-miterlimit="10" x1="19.123" y1="34.309" x2="47.954" y2="34.309"/>
<path fill="none" stroke="#231815" stroke-miterlimit="10" d="M42.869,43.718"/>
<path fill="none" stroke="#231815" stroke-miterlimit="10" d="M19.171,43.718"/>
<line fill="none" stroke="#231815" stroke-miterlimit="10" x1="19.171" y1="43.718" x2="37.107" y2="43.718"/>
</svg>
