<?xml version="1.0" encoding="utf-8"?>
<!-- Generator: Adobe Illustrator 19.0.0, SVG Export Plug-In . SVG Version: 6.00 Build 0)  -->
<svg version="1.1" id="图层_1" xmlns="http://www.w3.org/2000/svg" xmlns:xlink="http://www.w3.org/1999/xlink" x="0px" y="0px"
	 viewBox="-444 246 70 70" style="enable-background:new -444 246 70 70;" xml:space="preserve">
<style type="text/css">
	.st0{fill:none;stroke:#000000;stroke-miterlimit:10;}
</style>
<g id="XMLID_6_">
	<path id="XMLID_8_" class="st0" d="M-383.6,276.9c0,21.5-23.8,34.3-25.4,34.3c-2.1,0-25.4-12-25.4-34.3c0-16.1,11.4-26.5,25.4-26.5
		S-383.6,260.8-383.6,276.9z"/>
	<path id="XMLID_7_" class="st0" d="M-398.9,274.3c-0.5-4.6-4.4-8.2-9.1-8.2c-3.9,0-7.2,2.4-8.5,5.8c-0.4-0.1-0.7-0.1-1.1-0.1
		c-3.5,0-6.4,2.9-6.4,6.4c0,3.5,2.9,6.4,6.4,6.4c1.7,0,17.1,0,18.6,0c2.8,0,5.1-2.3,5.1-5.1C-393.9,276.6-396.2,274.3-398.9,274.3z"
		/>
</g>
</svg>
